<svg viewBox="0 0 512 512" fill="none" xmlns="http://www.w3.org/2000/svg">
  <g fill="currentColor">
    <!-- Top-Left Rectangle -->
    <rect x="60" y="60" width="150" height="80"/>
    
    <!-- Middle Curved Pipe / Stem -->
    <path d="M 210,140 L 290,140 L 290,270 C 290,303.1 316.9,330 350,330 L 430,330 L 430,410 L 350,410 C 272.7,410 210,347.3 210,270 Z"/>
    
    <!-- Bottom-Left Swoosh / Curved Wedge -->
    <path d="M 60,410 C 120,410 170,360 190,310 C 205,340 220,380 225,410 Z"/>
    
    <!-- Middle-Right Upward Arrow -->
    <polygon points="420,210 293,252 367,263 378,337"/>
    
    <!-- Top-Right Sparkle Star -->
    <path d="M 460,70 Q 460,115 415,115 Q 460,115 460,160 Q 460,115 505,115 Q 460,115 460,70"/>
  </g>
</svg>
