<svg width="512" height="512" viewBox="0 0 512 512" fill="none" xmlns="http://www.w3.org/2000/svg">
  <!-- Top Left Square -->
  <rect x="100" y="100" width="120" height="120" fill="#001489" />
  
  <!-- Bottom Left Shape -->
  <path d="M100 250 L100 412 L220 412 L220 370 L100 250 Z" fill="#001489" />
  <rect x="100" y="260" width="120" height="152" fill="#001489" />
  
  <path d="M100 250 H 160 L 100 310 Z" fill="#001489"/>
  <path d="M100 290 L 220 290 L 220 412 L 100 412 Z" fill="#001489"/>
  <!-- The logo consists of 4 shapes forming a K -->
  <!-- Let's just draw the exact shapes from the image -->
  <!-- Top left square -->
  <rect x="110" y="130" width="100" height="100" fill="#001280"/>
  <!-- Top right shape (triangle/polygon pointing right) -->
  <polygon points="230,230 230,130 380,130 380,230" fill="none"/>
  <polygon points="230,230 230,150 360,150" fill="#001280"/>
  <path d="M 230 230 L 230 150 L 360 150 Z" fill="#001280"/>
  
  <!-- Let's do a more precise K -->
  <g fill="#001ea0">
    <!-- Top Left -->
    <rect x="115" y="115" width="115" height="115" />
    
    <!-- Top Right -->
    <polygon points="250,230 250,115 385,115 385,230" fill="none" />
    <polygon points="250,230 250,160 350,160" fill="none"/>
    
    <!-- To make the logo exactly like the image: -->
    <!-- Top Left: Square -->
    <rect x="110" y="120" width="120" height="110" />
    <!-- Bottom Left: Polygon -->
    <polygon points="110,390 230,390 230,300 170,300 110,360" />
    <polygon points="110,250 110,390 230,390 230,300" />
  </g>
</svg>
