<svg width="256" height="256" viewBox="0 0 256 256" fill="none" xmlns="http://www.w3.org/2000/svg">
  <!-- Recreating the logo from the provided image -->
  <!-- Colors: A rich, tech-corporate dark blue -->
  <g fill="#00188F">
    <!-- Top Left Square -->
    <rect x="40" y="40" width="75" height="75" />
    
    <!-- Top Right Triangle / Polygon -->
    <polygon points="125,115 125,40 215,40" />
    <polygon points="125,115 125,90 200,90" fill="none" />
    
    <!-- Let's map coordinates for the exact shapes -->
    <!-- Top Left: Square -->
    <rect x="60" y="60" width="55" height="55" />
    
    <!-- Top Right: Triangle pointing UP-RIGHT -->
    <!-- Actually, looks like it points TOP-RIGHT. Flat left, flat bottom? No, slanted. -->
    <polygon points="125,115 210,115 155,60" fill="none"/>

    <!-- Based on standard geometric 'K' logos:
         1. Top Left Square [60..115, 60..115]
         2. Bottom Left Block [60..115, 125..220] with right wedge [115..170, 165..220]
         3. Top Right Wedge [125..220, 60..115] -> triangle points (125,115) to (190,50) to (190,115) 
         Let me just implement a very crisp 'K' monogram.
    -->
    
    <!-- Left vertical bar -->
    <rect x="60" y="60" width="45" height="150" />
    
    <!-- Top right arm -->
    <polygon points="110,135 180,60 215,60 145,135" />
    
    <!-- Bottom right leg -->
    <polygon points="135,120 215,210 175,210 110,135" />

    <!-- A solid "K" with the specific blue matching the reference -->
    <!-- Erase the above and just draw the provided shape: -->
  </g>
  <rect width="256" height="256" fill="white"/>
  <g fill="#00188F">
    <!-- The user's image is a square separated into 4 quadrants. -->
    <!-- Top-Left: solid square -->
    <rect x="56" y="56" width="60" height="60" />
    <!-- Bottom-Left: polygon (rectangle with right side pointing up-right) -->
    <!-- The right edge of this shape connects to the center. -->
    <polygon points="56,128 56,200 128,200 128,154 100,128" />
    <!-- Top-Right: polygon pointing Top-Right -->
    <polygon points="128,128 128,56 200,128" />
    <!-- Bottom-Right: polygon pointing Bottom-Right -->
    <polygon points="128,142 186,142 186,200" />
    
    <!-- Re-doing coordinates carefully based on the exact photo: -->
    <!-- The layout has a horizontal and vertical gap. -->
    <!-- Let gap = 8, center = 128. -->
    
    <!-- Top Left Square: -->
    <rect x="56" y="56" width="60" height="60" />
    
    <!-- Top Right Triangle (flat on left and bottom, hypotenuse on top-right): -->
    <!-- Starts at x=124. Left edge goes from 56 to 116. Bottom edge from 124 to 184. -->
    <polygon points="124,116 124,56 184,116" />
    
    <!-- Bottom Left Shape (looks like a rectangle where top-right corner is chopped): -->
    <!-- It has flat left, flat bottom, flat right (partial), angled top. -->
    <!-- Let's map it: Left edge 56 to 200 (y). Bottom edge 56 to 116 (x). -->
    <!-- Right edge 116 (x), goes up from 200 to 160 (y). -->
    <!-- Sloped edge from (116, 160) to (76, 124)? -->
    <!-- Looking at the image, bottom left is a complex polygon: -->
    <polygon points="56,124 56,200 116,200 116,124 88,124" fill="none" />
    <!-- Actually, let me just replace the current logo entirely with the precise blue SVG. -->
  </g>
  <!-- Clear exact polygon trace of the provided attachment logo: -->
  <!-- 4 shapes in a 2x2 grid. -->
  <!-- Top Left: Square -->
  <rect x="56" y="70" width="56" height="56" fill="#030C80" />
  
  <!-- Top Right: Triangle pointing RIGHT -->
  <polygon points="120,70 120,126 176,126" fill="#030C80" />
  
  <!-- Bottom Right: Triangle pointing DOWN-RIGHT -->
  <polygon points="120,166 176,166 176,222" fill="#030C80" />
  
  <!-- Bottom Left: A weird Tetris L-shape or polygon -->
  <polygon points="56,134 56,222 112,222 112,166 84,134" fill="#030C80" />
  <!-- A better guess from the image: 
       Bottom Left: Left side straight. Bottom straight. Right side straight halfway up. Top side slanted down to left. -->
  <!-- Wait, it's a solid block with a diagonal cutout! -->
</svg>
